<svg width="24" height="24" viewBox="0 0 24 24" fill="none" xmlns="http://www.w3.org/2000/svg">
<path d="M8 13V4.5C8 4.10218 8.15804 3.72064 8.43934 3.43934C8.72064 3.15804 9.10218 3 9.5 3C9.89782 3 10.2794 3.15804 10.5607 3.43934C10.842 3.72064 11 4.10218 11 4.5V12M11 11.5V9.5C11 9.10218 11.158 8.72064 11.4393 8.43934C11.7206 8.15804 12.1022 8 12.5 8C12.8978 8 13.2794 8.15804 13.5607 8.43934C13.842 8.72064 14 9.10218 14 9.5V12M14 10.5C14 10.1022 14.158 9.72064 14.4393 9.43934C14.7206 9.15804 15.1022 9 15.5 9C15.8978 9 16.2794 9.15804 16.5607 9.43934C16.842 9.72064 17 10.1022 17 10.5V12" stroke="#B3C8E5" stroke-width="2" stroke-linecap="round" stroke-linejoin="round"/>
<path d="M17 11.499C17 11.1012 17.1581 10.7197 17.4394 10.4384C17.7207 10.1571 18.1022 9.99903 18.5 9.99903C18.8978 9.99903 19.2794 10.1571 19.5607 10.4384C19.842 10.7197 20 11.1012 20 11.499V15.999C20 17.5903 19.3679 19.1165 18.2427 20.2417C17.1174 21.3669 15.5913 21.999 14 21.999H12H12.208C11.2144 21.9992 10.2362 21.7526 9.3614 21.2813C8.4866 20.8101 7.74253 20.1289 7.19602 19.299L7.00002 18.999C6.68802 18.52 5.59302 16.611 3.71402 13.271C3.52247 12.9306 3.4713 12.5288 3.5714 12.1512C3.6715 11.7736 3.91496 11.4499 4.25002 11.249C4.60689 11.0349 5.02509 10.9461 5.43818 10.9969C5.85126 11.0476 6.23556 11.2349 6.53002 11.529L8.00002 12.999M2.54102 5.59303C3.30843 5.032 4.13302 4.55367 5.00102 4.16603M14 3.45703C15.3023 3.80648 16.5445 4.3499 17.685 5.06903" stroke="#B3C8E5" stroke-width="2" stroke-linecap="round" stroke-linejoin="round"/>
</svg>
